<svg data-v-423bf9ae="" xmlns="http://www.w3.org/2000/svg" viewBox="0 0 187.6606949628629 163" class="iconAbove"><!----><!----><!----><g data-v-423bf9ae="" id="00f9346c-70ac-4f2a-9111-7ee8cac31e0a" fill="black" transform="matrix(5.357142492216485,0,0,5.357142492216485,-7.499995609327925,96.19642675287866)"><path d="M2.86 11.61L2.86 11.61Q2.86 11.91 2.65 12.12L2.65 12.12L2.65 12.12Q2.45 12.33 2.13 12.33L2.13 12.33L2.13 12.33Q1.82 12.33 1.61 12.12L1.61 12.12L1.61 12.12Q1.40 11.91 1.40 11.61L1.40 11.61L1.40 2.13L1.40 2.13Q1.40 1.81 1.61 1.60L1.61 1.60L1.61 1.60Q1.82 1.40 2.13 1.40L2.13 1.40L4.93 1.40L4.93 1.40Q5.96 1.40 6.78 1.86L6.78 1.86L6.78 1.86Q7.60 2.32 8.06 3.15L8.06 3.15L8.06 3.15Q8.51 3.98 8.51 5.03L8.51 5.03L8.51 5.03Q8.51 6.05 8.06 6.85L8.06 6.85L8.06 6.85Q7.60 7.64 6.78 8.09L6.78 8.09L6.78 8.09Q5.96 8.54 4.93 8.54L4.93 8.54L2.86 8.54L2.86 11.61ZM4.93 7.20L4.93 7.20Q5.88 7.20 6.50 6.59L6.50 6.59L6.50 6.59Q7.11 5.98 7.11 5.03L7.11 5.03L7.11 5.03Q7.11 4.03 6.50 3.39L6.50 3.39L6.50 3.39Q5.88 2.74 4.93 2.74L4.93 2.74L2.86 2.74L2.86 7.20L4.93 7.20ZM13.45 4.62L13.45 4.62Q14.53 4.62 15.41 5.13L15.41 5.13L15.41 5.13Q16.28 5.64 16.79 6.53L16.79 6.53L16.79 6.53Q17.30 7.42 17.30 8.51L17.30 8.51L17.30 11.63L17.30 11.63Q17.30 11.94 17.10 12.14L17.10 12.14L17.10 12.14Q16.90 12.35 16.59 12.35L16.59 12.35L16.59 12.35Q16.28 12.35 16.08 12.14L16.08 12.14L16.08 12.14Q15.88 11.94 15.88 11.63L15.88 11.63L15.88 11.12L15.88 11.12Q15.39 11.72 14.69 12.05L14.69 12.05L14.69 12.05Q13.99 12.39 13.17 12.39L13.17 12.39L13.17 12.39Q12.17 12.39 11.35 11.89L11.35 11.89L11.35 11.89Q10.53 11.38 10.06 10.49L10.06 10.49L10.06 10.49Q9.59 9.60 9.59 8.51L9.59 8.51L9.59 8.51Q9.59 7.42 10.09 6.53L10.09 6.53L10.09 6.53Q10.60 5.64 11.49 5.13L11.49 5.13L11.49 5.13Q12.38 4.62 13.45 4.62L13.45 4.62ZM13.45 11.13L13.45 11.13Q14.15 11.13 14.72 10.79L14.72 10.79L14.72 10.79Q15.29 10.44 15.61 9.85L15.61 9.85L15.61 9.85Q15.93 9.25 15.93 8.51L15.93 8.51L15.93 8.51Q15.93 7.77 15.61 7.17L15.61 7.17L15.61 7.17Q15.29 6.57 14.72 6.22L14.72 6.22L14.72 6.22Q14.15 5.88 13.45 5.88L13.45 5.88L13.45 5.88Q12.75 5.88 12.19 6.22L12.19 6.22L12.19 6.22Q11.62 6.57 11.29 7.17L11.29 7.17L11.29 7.17Q10.96 7.77 10.96 8.51L10.96 8.51L10.96 8.51Q10.96 9.25 11.29 9.85L11.29 9.85L11.29 9.85Q11.62 10.44 12.19 10.79L12.19 10.79L12.19 10.79Q12.75 11.13 13.45 11.13L13.45 11.13ZM22.90 4.62L22.90 4.62Q23.98 4.62 24.86 5.13L24.86 5.13L24.86 5.13Q25.73 5.64 26.24 6.53L26.24 6.53L26.24 6.53Q26.75 7.42 26.75 8.51L26.75 8.51L26.75 11.63L26.75 11.63Q26.75 11.94 26.55 12.14L26.55 12.14L26.55 12.14Q26.35 12.35 26.04 12.35L26.04 12.35L26.04 12.35Q25.73 12.35 25.53 12.14L25.53 12.14L25.53 12.14Q25.33 11.94 25.33 11.63L25.33 11.63L25.33 11.12L25.33 11.12Q24.84 11.72 24.14 12.05L24.14 12.05L24.14 12.05Q23.44 12.39 22.62 12.39L22.62 12.39L22.62 12.39Q21.62 12.39 20.80 11.89L20.80 11.89L20.80 11.89Q19.98 11.38 19.51 10.49L19.51 10.49L19.51 10.49Q19.04 9.60 19.04 8.51L19.04 8.51L19.04 8.51Q19.04 7.42 19.54 6.53L19.54 6.53L19.54 6.53Q20.05 5.64 20.94 5.13L20.94 5.13L20.94 5.13Q21.83 4.62 22.90 4.62L22.90 4.62ZM22.90 11.13L22.90 11.13Q23.60 11.13 24.17 10.79L24.17 10.79L24.17 10.79Q24.74 10.44 25.06 9.85L25.06 9.85L25.06 9.85Q25.38 9.25 25.38 8.51L25.38 8.51L25.38 8.51Q25.38 7.77 25.06 7.17L25.06 7.17L25.06 7.17Q24.74 6.57 24.17 6.22L24.17 6.22L24.17 6.22Q23.60 5.88 22.90 5.88L22.90 5.88L22.90 5.88Q22.20 5.88 21.64 6.22L21.64 6.22L21.64 6.22Q21.07 6.57 20.74 7.17L20.74 7.17L20.74 7.17Q20.41 7.77 20.41 8.51L20.41 8.51L20.41 8.51Q20.41 9.25 20.74 9.85L20.74 9.85L20.74 9.85Q21.07 10.44 21.64 10.79L21.64 10.79L21.64 10.79Q22.20 11.13 22.90 11.13L22.90 11.13ZM32.69 1.27L32.69 1.27Q33.89 1.27 34.72 1.76L34.72 1.76L34.72 1.76Q35.55 2.25 36.12 3.16L36.12 3.16L36.12 3.16Q36.29 3.43 36.29 3.67L36.29 3.67L36.29 3.67Q36.29 3.98 36.01 4.17L36.01 4.17L36.01 4.17Q35.85 4.27 35.64 4.27L35.64 4.27L35.64 4.27Q35.43 4.27 35.25 4.16L35.25 4.16L35.25 4.16Q35.07 4.06 34.97 3.88L34.97 3.88L34.97 3.88Q34.59 3.25 34.03 2.92L34.03 2.92L34.03 2.92Q33.46 2.59 32.59 2.59L32.59 2.59L32.59 2.59Q31.53 2.59 30.87 3.00L30.87 3.00L30.87 3.00Q30.21 3.42 30.21 4.20L30.21 4.20L30.21 4.20Q30.21 4.93 30.80 5.42L30.80 5.42L30.80 5.42Q31.39 5.91 32.90 6.06L32.90 6.06L32.90 6.06Q34.58 6.23 35.50 7.08L35.50 7.08L35.50 7.08Q36.43 7.92 36.43 9.31L36.43 9.31L36.43 9.31Q36.43 10.32 35.88 11.04L35.88 11.04L35.88 11.04Q35.34 11.76 34.43 12.12L34.43 12.12L34.43 12.12Q33.53 12.47 32.49 12.47L32.49 12.47L32.49 12.47Q31.14 12.47 30.02 11.86L30.02 11.86L30.02 11.86Q28.91 11.24 28.49 10.25L28.49 10.25L28.49 10.25Q28.42 10.08 28.42 9.97L28.42 9.97L28.42 9.97Q28.42 9.76 28.57 9.60L28.57 9.60L28.57 9.60Q28.73 9.44 28.99 9.38L28.99 9.38L28.99 9.38Q29.04 9.37 29.13 9.37L29.13 9.37L29.13 9.37Q29.36 9.37 29.56 9.50L29.56 9.50L29.56 9.50Q29.76 9.63 29.86 9.86L29.86 9.86L29.86 9.86Q30.11 10.40 30.86 10.78L30.86 10.78L30.86 10.78Q31.60 11.16 32.49 11.16L32.49 11.16L32.49 11.16Q33.54 11.16 34.27 10.67L34.27 10.67L34.27 10.67Q35 10.19 35 9.35L35 9.35L35 9.35Q35 8.55 34.38 7.99L34.38 7.99L34.38 7.99Q33.77 7.42 32.51 7.29L32.51 7.29L32.51 7.29Q30.77 7.13 29.78 6.28L29.78 6.28L29.78 6.28Q28.78 5.43 28.78 4.16L28.78 4.16L28.78 4.16Q28.78 3.26 29.30 2.61L29.30 2.61L29.30 2.61Q29.81 1.96 30.70 1.62L30.70 1.62L30.70 1.62Q31.58 1.27 32.69 1.27L32.69 1.27Z"></path></g><!----><g data-v-423bf9ae="" id="112b83b9-53b3-4e1c-88a9-b5255ebe6ad6" transform="matrix(1.0967317867280029,0,0,1.0967317867280029,45.11206556612802,-3.3839284713020135)" stroke="none" fill="black"><path d="M38.182 57.753L20.18 47.91v-5.455l18.002-9.803v6.422l-12.557 6.039 12.557 6.266zM39.848 62.08l6.503-34.162h3.785L43.56 62.08zM51.8 57.78V51.4l12.572-6.219L51.8 39.028v-6.332L69.82 42.5v5.41z"></path><path d="M44.999 86.031L9.465 65.517V24.484L44.999 3.969l35.536 20.516v41.029L44.999 86.031zM13.07 63.434l31.929 18.434L76.93 63.434V26.566L44.999 8.131 13.07 26.565v36.869z"></path></g><!----></svg>