<svg data-v-423bf9ae="" xmlns="http://www.w3.org/2000/svg" viewBox="0 0 51.963157410308455 60" class="icon"><!----><!----><!----><!----><g data-v-423bf9ae="" id="7149d853-25a2-4aa5-88fe-b5f093392372" transform="matrix(0.7311545244853352,0,0,0.7311545244853352,-6.920377564068957,-2.9019521431757482)" stroke="none" fill="black"><path d="M38.182 57.753L20.18 47.91v-5.455l18.002-9.803v6.422l-12.557 6.039 12.557 6.266zM39.848 62.08l6.503-34.162h3.785L43.56 62.08zM51.8 57.78V51.4l12.572-6.219L51.8 39.028v-6.332L69.82 42.5v5.41z"></path><path d="M44.999 86.031L9.465 65.517V24.484L44.999 3.969l35.536 20.516v41.029L44.999 86.031zM13.07 63.434l31.929 18.434L76.93 63.434V26.566L44.999 8.131 13.07 26.565v36.869z"></path></g><!----></svg>